<?xml version="1.0" standalone="yes"?>
<svg xmlns="http://www.w3.org/2000/svg" width="192" height="190">
<path style="fill:#f1b251; stroke:none;" d="M0 0C5.67297 10.9112 14.4531 17.002 16.5617 30C19.3153 46.9736 12.9973 73.0083 25.5293 86.787C40.3808 103.116 77.5632 83.7448 66.5432 62.0039C57.7607 44.6771 29.2696 60.1067 41.4336 73.7716C47.8937 81.0287 54.9317 72.725 56 66L51.9599 67.8241C43.3485 71.3257 50.2995 57.4672 57.5625 63.7423C65.1789 70.3227 49.8471 82.182 43 80.6667C35.491 79.0049 32.4301 69.5396 31.0147 63C27.4968 46.7462 39.0987 25.5344 58 28.4792C66.2949 29.7715 73.9867 35.2263 78.7793 42.0147C82.4331 47.19 83.583 53.6991 90 56C90 35.9496 79.8562 18.522 58 16.1736C49.7424 15.2864 38.9707 18.4864 31.1698 16.2307C27.3565 15.1281 24.1356 10.6749 21 8.35107C15.1885 4.04419 7.20291 0.721878 0 0z"/>
<path style="fill:#ffffff; stroke:none;" d="M4 0L4 1C14.5437 3.88379 20.8402 13.0091 30.2855 16.3611C37.4778 18.9136 49.1285 15.3279 57 16.1736C78.5163 18.4855 90 35.8848 90 56C76.0336 48.3584 74.4462 25.495 53 28.304C36.0166 30.5285 27.6261 46.9912 30.8079 63C32.1564 69.785 34.9233 79.6994 43 80.848C50.0397 81.8491 64.4005 72.7722 58.8171 64.4336C56.2872 60.6553 47.9659 61.3242 46.7515 65.9992C45.1019 72.35 54.2603 67.0305 56 66C50.2367 88.0761 27.7411 63.867 48.0008 55.0895C50.4815 54.0147 53.3657 53.8037 56 54.3951C67.503 56.9773 70.3516 69.8283 65.0448 78.9992C58.2876 90.6764 40.8838 96.9924 29.0401 89.0301C20.4943 83.2849 19.7981 73.1982 18.5756 64C15.7741 42.9218 22.1533 15.1564 0 2L0 188C17.7451 175.055 17.0949 151.771 17.9606 132C18.3114 123.99 17.7151 114.953 22.2222 107.831C34.6618 88.1741 72.4819 101.19 66.581 125C61.7005 144.693 30.5369 133.2 40.2292 118.105C46.1083 108.949 53.2238 117.571 56 124C53.6487 123.032 49.9666 120.123 47.3333 120.831C41.7783 122.325 50.627 128.834 54.9414 127.681C65.8639 124.763 52.6328 110.873 47 109.534C36.1866 106.963 30.8192 119.012 30.0934 128C28.2424 150.918 46.4933 171.905 70 158.468C94.8052 144.288 92 100.215 92 76C92 68.3762 91.5675 60.6088 92.044 53C92.1911 50.6513 92.8128 46.0556 96.054 46.0556C100.761 46.0556 100.958 53.8713 100.996 57C101.14 68.6226 104.267 83.5224 99 94C103.28 94 100 106.613 100 110C100 126.017 97.1072 143.672 87.6667 157C78.8641 169.427 63.1674 176.475 48 175C42.9997 174.514 34.8087 171.764 30 173.167C19.9797 176.089 15.1877 188.038 3 189L3 190L192 190C183.984 179.104 166.204 182.486 160.14 167C153.795 150.794 168.177 125.543 156.297 111.279C149.059 102.588 127.955 110.75 132.782 122.775C136.214 131.325 145.524 124.301 146 118L136 122C137.266 117.741 139.901 112.477 145.001 112.047C151.978 111.459 156.729 120.399 153.257 125.996C138.958 149.046 105.967 119.593 105 101C120.38 98.929 136.404 97.6111 152 99.1705C158.568 99.8272 166.009 100.922 169.777 106.926C184.791 130.85 161.68 167.994 192 186L192 3C171.118 14.1821 176.598 46.6671 174.285 66C173.29 74.3256 172.275 82.8857 164.96 88.3619C153.947 96.6063 135.777 91.2623 129.008 80C123.671 71.1185 126.169 57.9067 137 54.6566C139.341 53.9542 141.72 54.1579 144 54.9707C163.944 62.0794 145.634 87.478 138 67C140.179 68.0939 150.337 71.7669 146.914 65.1289C144.942 61.3054 136.566 60.5426 134.194 64.3179C128.593 73.2364 143.691 82.0801 150.996 80.7708C158.285 79.4646 161.384 70.3875 162.535 64C165.282 48.7686 159.449 32.1783 143 28.669C132.186 26.3618 121.122 32.3479 114.785 41.0039C110.842 46.3905 109.346 52.9679 103 56C103.002 35.5717 115.713 18.4539 137 16.1736C144.961 15.3208 155.536 18.5361 163 16.3071C172.15 13.5748 180.113 4.34489 190 1L172 0L135 0L4 0z"/>
<path style="fill:#f5d795; stroke:none;" d="M161 24L159 24L160 26C150.676 32.1131 160.562 41.3402 162.319 49C164.124 56.8649 162.396 64.5072 160 72L161 72L174.415 55.625L178.814 21L192 0C180.778 3.06924 162.129 10.4873 161 24M6 1L7 2L6 1M1 2L2 3L1 2z"/>
<path style="fill:#f1b251; stroke:none;" d="M103 56C109.163 54.2173 110.722 47.9372 114.093 43C118.693 36.2632 125.859 30.452 134 29C136.814 23.6976 142.127 18.5316 148 17C123.065 6.53696 103 34.7226 103 56z"/>
<path style="fill:#c38e45; stroke:none;" d="M134 28L155 33L163 17C150.897 15.4704 140.702 16.237 134 28z"/>
<path style="fill:#f1b251; stroke:none;" d="M151 16L152 17L151 16M159 16L160 17L159 16M163 17L164 18L163 17z"/>
<path style="fill:#f5d795; stroke:none;" d="M126 18L127 19L126 18M69 19L70 20L69 19z"/>
<path style="fill:#f1b251; stroke:none;" d="M161 20L162 21L161 20z"/>
<path style="fill:#f5d795; stroke:none;" d="M118 22L119 23L118 22z"/>
<path style="fill:#ffffff; stroke:none;" d="M161 22L162 23L161 22z"/>
<path style="fill:#f1b251; stroke:none;" d="M159 23L160 24L159 23z"/>
<path style="fill:#ffffff; stroke:none;" d="M160 23L161 24L160 23z"/>
<path style="fill:#f1b251; stroke:none;" d="M158 25L159 26L158 25z"/>
<path style="fill:#ffffff; stroke:none;" d="M159 25L160 26L159 25z"/>
<path style="fill:#f1b251; stroke:none;" d="M157 27L158 28L157 27z"/>
<path style="fill:#f5d795; stroke:none;" d="M47 29L48 30L47 29M82 29L83 30L82 29z"/>
<path style="fill:#f1b251; stroke:none;" d="M156 29L157 30L156 29z"/>
<path style="fill:#f5d795; stroke:none;" d="M67 31L68 32L67 31z"/>
<path style="fill:#f1b251; stroke:none;" d="M155 31L156 32L155 31z"/>
<path style="fill:#f5d795; stroke:none;" d="M70 33L71 34L70 33z"/>
<path style="fill:#741b02; stroke:none;" d="M153 33L154 34L153 33z"/>
<path style="fill:#f1b251; stroke:none;" d="M154 33L155 34L154 33z"/>
<path style="fill:#f5d795; stroke:none;" d="M75 37L76 38L75 37M76 38L77 39L76 38z"/>
<path style="fill:#f1b251; stroke:none;" d="M92 71C95.1313 64.7284 101.801 59.5123 100.81 52C100.482 49.5127 98.819 44.17 95.26 45.3457C89.3061 47.3126 92 66.0896 92 71z"/>
<path style="fill:#f5d795; stroke:none;" d="M92 48L93 49L92 48z"/>
<path style="fill:#c38e45; stroke:none;" d="M109 50L110 51L109 50M105 53L106 54L105 53z"/>
<path style="fill:#f5d795; stroke:none;" d="M143 91L149 81C142.946 80.3759 125.668 67.2922 137.11 62.6042C145.038 59.3555 151.757 71.8351 138 67C139.874 74.3933 149.134 81.487 153.258 70.9846C159.672 54.6489 132.033 47.3293 126.804 64C125.68 67.5829 126.033 71.3896 126.819 75C127.659 78.857 129.294 82.0825 132.105 84.8951C135.209 88.0002 138.922 89.6087 143 91z"/>
<path style="fill:#f1b251; stroke:none;" d="M149 81L143 88L143 91C168.029 97.0253 174.496 78.0308 175 57C163.696 61.1721 161.011 79.7755 149 81z"/>
<path style="fill:#c38e45; stroke:none;" d="M100 59C88.6929 70.0896 92 86.2062 92 101L93 101C100.783 90.4985 105.495 72.0948 100 59z"/>
<path style="fill:#f5d795; stroke:none;" d="M174 62L175 63L174 62M67 73L68 74L67 73M157 76L158 77L157 76M101 79L102 80L101 79z"/>
<path style="fill:#f1b251; stroke:none;" d="M101 80L101 90L102 90L101 80z"/>
<path style="fill:#f5d795; stroke:none;" d="M153 80L154 81L153 80M150.667 81.3333L151.333 81.6667L150.667 81.3333M60 85L61 86L60 85M100 91L101 92L100 91M144 91L145 92L144 91M99 92L100 93L99 92z"/>
<path style="fill:#f1b251; stroke:none;" d="M98 93L99 94L98 93z"/>
<path style="fill:#f5d795; stroke:none;" d="M100 93C79.7703 109.748 95.6135 147.74 66 159.906C62.1132 161.503 58.181 162.073 54 161.985C48.8777 161.876 44.5743 160.147 40 158L30 173L64 174L75 158L87 149L96 140L97 139C96.8032 125.184 105.554 106.236 100 93z"/>
<path style="fill:#f1b251; stroke:none;" d="M95 97L96 98L95 97M17 140L18 140C19.4995 135.501 27.6633 127.416 30 128C32.4268 117.515 36.8189 107.774 49 110L56 101C51.9725 99.9011 48.225 98.2471 44 98.0401C16.9001 96.7123 19.4842 120.344 17 140M94 98L95 99L94 98z"/>
<path style="fill:#f5d795; stroke:none;" d="M105 101C105.169 108.179 108.5 113.564 113 119L114 119L133 99L105 101z"/>
<path style="fill:#f1b251; stroke:none;" d="M114 118C119.829 130.5 153.647 146.393 154.847 122C155.526 108.216 138.202 109.85 136 122L146 118C145.153 123.474 138.628 129.939 133.747 123.696C125.906 113.668 148.612 102.045 156.297 112.133C170.359 130.593 146.776 159.619 166.174 176.471C169.277 179.167 173.221 181.33 177 182.91C181.816 184.925 186.854 187.114 192 188C187.597 178.915 179.065 173.323 176.289 163C172.759 149.867 174.074 135.446 173.089 122C172.611 115.479 172.748 107.012 166.815 102.738C161.782 99.1134 152.953 99.0096 147 99C142.567 98.9929 136.282 97.9019 132.286 100.179C125.413 104.097 120.212 112.858 114 118z"/>
<path style="fill:#741b02; stroke:none;" d="M91.3333 100.667L91.6667 101.333L91.3333 100.667z"/>
<path style="fill:#c38e45; stroke:none;" d="M49 110C53.7189 112.786 65.4618 126.921 52.9954 127.793C50.5734 127.963 42.7605 123.153 47.3765 121.457C49.6638 120.616 53.7139 123.415 56 124C53.5073 117.205 45.9737 108.974 40.0934 118.185C30.8356 132.687 56.2226 142.461 64.8519 129.826C72.3648 118.827 57.3208 92.3206 49 110z"/>
<path style="fill:#f1b251; stroke:none;" d="M60 105L61 106L60 105M61 106L62 107L61 106M50 110L51 111L50 110M53 112L54 113L53 112M45 113L46 114L45 113M47 113L48 114L47 113M54 113L55 114L54 113M65 113L66 114L65 113M43 114L44 115L43 114M41.6667 115.333L42.3333 115.667L41.6667 115.333M51 115L52 116L51 115M66 116L67 117L66 116M57 117L58 118L57 117z"/>
<path style="fill:#f5d795; stroke:none;" d="M132.333 117.667L132.667 118.333L132.333 117.667z"/>
<path style="fill:#f1b251; stroke:none;" d="M39 118L40 119L39 118M53 118L54 119L53 118z"/>
<path style="fill:#f5d795; stroke:none;" d="M54 120L55 121L54 120z"/>
<path style="fill:#f1b251; stroke:none;" d="M38 121L39 122L38 121z"/>
<path style="fill:#f5d795; stroke:none;" d="M115 121L116 122L115 121M159 121L160 122L159 121M116 122L117 123L116 122z"/>
<path style="fill:#f1b251; stroke:none;" d="M38.3333 124.667L38.6667 125.333L38.3333 124.667M45 124L46 125L45 124z"/>
<path style="fill:#f5d795; stroke:none;" d="M134 125L135 126L134 125M173 125L174 126L173 125z"/>
<path style="fill:#c38e45; stroke:none;" d="M28 127L18.0332 139.025L13.6265 169L0 190C14.2439 187.896 23.6491 180.313 31.9198 169C34.0453 166.093 38.9222 161.967 38.8472 158.09C38.7568 153.413 32.0964 147.127 30.76 142C29.5419 137.327 31.0805 130.721 28 127z"/>
<path style="fill:#f1b251; stroke:none;" d="M29 129L30 130L29 129M97 131L98 132L97 131M29 132L29 135L30 135L29 132M62 132L63 133L62 132z"/>
<path style="fill:#f5d795; stroke:none;" d="M138 135L138 136L141 136L138 135M17 136L18 137L17 136z"/>
<path style="fill:#f1b251; stroke:none;" d="M94 139L87 149L75 158L64 173C75.9548 171.209 85.5793 162.467 91.1096 152C93.0749 148.28 96.0154 142.926 94 139z"/>
<path style="fill:#f5d795; stroke:none;" d="M159 140L160 141L159 140M95 141L96 142L95 141z"/>
<path style="fill:#f1b251; stroke:none;" d="M17 143L18 144L17 143z"/>
<path style="fill:#f5d795; stroke:none;" d="M94 143L95 144L94 143M93 146L94 147L93 146M174 151L175 152L174 151z"/>
<path style="fill:#f1b251; stroke:none;" d="M16.3333 152.667L16.6667 153.333L16.3333 152.667M36 154L37 155L36 154M16.3333 155.667L16.6667 156.333L16.3333 155.667M38 160L39 161L38 160M37 161L38 162L37 161z"/>
<path style="fill:#f5d795; stroke:none;" d="M15 163L16 164L15 163z"/>
<path style="fill:#f1b251; stroke:none;" d="M33 166L34 167L33 166z"/>
<path style="fill:#f5d795; stroke:none;" d="M77 167L78 168L77 167z"/>
<path style="fill:#f1b251; stroke:none;" d="M30 170L31 171L30 170z"/>
<path style="fill:#f5d795; stroke:none;" d="M72 170L73 171L72 170M70 171L71 172L70 171z"/>
<path style="fill:#f1b251; stroke:none;" d="M29 172L30 173L29 172M61 173L62 174L61 173z"/>
<path style="fill:#f5d795; stroke:none;" d="M172 180L173 181L172 180z"/>
<path style="fill:#f1b251; stroke:none;" d="M5 182L6 183L5 182M6 188L7 189L6 188z"/>
</svg>
