<?xml version="1.0" standalone="no"?>
<!DOCTYPE svg PUBLIC "-//W3C//DTD SVG 20010904//EN"
 "http://www.w3.org/TR/2001/REC-SVG-20010904/DTD/svg10.dtd">
<svg version="1.0" xmlns="http://www.w3.org/2000/svg"
 width="275.000000pt" height="183.000000pt" viewBox="0 0 275.000000 183.000000"
 preserveAspectRatio="xMidYMid meet">

<g transform="translate(0.000000,183.000000) scale(0.100000,-0.100000)"
fill="#000000" stroke="none">
<path d="M0 1751 l0 -80 55 -6 c30 -4 92 -2 139 5 108 15 350 2 468 -26 28 -6
50 11 89 67 15 21 18 22 48 10 17 -8 49 -35 71 -60 35 -41 48 -49 103 -61 34
-7 86 -24 115 -38 60 -27 116 -27 191 2 33 13 60 15 110 10 64 -6 68 -5 91 21
14 14 54 57 89 93 67 70 111 124 111 135 0 4 -378 7 -840 7 l-840 0 0 -79z"/>
<path d="M1768 1781 c-18 -26 -58 -70 -88 -96 -30 -27 -59 -56 -65 -65 -19
-33 -96 -89 -128 -94 -18 -3 -59 -4 -93 -3 -66 2 -93 -11 -178 -88 -40 -37
-70 -45 -79 -21 -5 13 -11 13 -46 -1 -23 -9 -37 -21 -35 -28 9 -24 -20 -35
-57 -22 -19 6 -37 16 -40 21 -4 4 -39 12 -79 16 -60 7 -81 5 -128 -12 -62 -22
-80 -38 -107 -98 -16 -35 -17 -47 -7 -72 6 -17 9 -34 7 -39 -7 -11 77 -19 177
-18 48 1 93 -3 100 -9 7 -5 57 -12 111 -14 81 -2 101 0 110 13 7 8 22 18 34
21 20 5 21 4 12 -13 -5 -11 -14 -17 -18 -14 -5 2 -20 -6 -35 -20 -14 -13 -33
-22 -40 -19 -11 4 -13 0 -9 -15 4 -15 -6 -32 -35 -61 -22 -22 -36 -40 -31 -40
4 0 11 5 15 11 3 6 15 9 25 6 10 -3 23 1 30 9 6 8 23 14 36 14 15 0 23 5 20
13 -5 13 32 71 41 63 2 -3 0 -12 -7 -19 -8 -11 -7 -19 8 -36 l19 -22 24 31
c13 18 21 33 18 35 -3 1 3 12 14 24 11 12 16 29 13 40 -3 15 1 21 17 24 14 2
7 6 -22 12 -33 6 -46 14 -58 36 -8 16 -17 29 -20 29 -13 0 -64 -32 -64 -40 0
-6 -5 -10 -11 -10 -6 0 -9 12 -7 27 2 21 12 32 41 46 20 9 37 22 37 27 0 14
37 12 43 -2 3 -8 6 -6 6 5 1 9 6 27 13 40 6 12 14 29 18 37 4 8 24 20 46 25
21 6 64 22 94 37 73 35 223 47 320 24 l64 -15 43 28 c47 31 82 31 101 0 10
-16 9 -26 -4 -55 -21 -44 -8 -63 33 -48 26 9 28 14 28 64 l0 55 116 40 c174
60 244 101 325 191 38 42 78 80 89 84 11 5 -140 9 -352 9 l-372 1 -33 -49z"/>
<path d="M2576 1793 c-10 -21 -30 -60 -44 -88 -13 -27 -30 -55 -37 -60 -7 -6
-15 -20 -19 -33 -4 -12 -11 -22 -16 -22 -9 0 -30 -18 -90 -73 -14 -13 -40 -30
-58 -37 -18 -7 -38 -20 -45 -30 -21 -29 -100 -74 -142 -79 -33 -5 -43 -12 -56
-39 -12 -24 -18 -28 -23 -17 -3 8 -11 15 -17 15 -7 0 -21 8 -31 17 -18 16 -21
16 -48 0 -20 -12 -31 -14 -35 -6 -4 6 -23 9 -41 7 -26 -3 -39 2 -55 18 -18 19
-26 21 -47 13 -14 -5 -33 -7 -41 -4 -33 13 -176 34 -181 27 -3 -4 -32 -16 -65
-26 -67 -22 -171 -71 -179 -85 -22 -35 61 -66 95 -35 22 19 23 16 9 -20 -7
-21 -16 -26 -42 -26 -31 -1 -32 -1 -12 -13 14 -8 20 -20 18 -34 -2 -13 1 -23
6 -23 6 0 10 -6 10 -12 0 -7 13 -27 29 -44 20 -22 26 -35 20 -45 -5 -8 -9 -9
-9 -4 0 6 -4 3 -10 -5 -6 -9 -5 -17 3 -22 16 -10 -9 -28 -40 -28 -13 0 -23 -4
-23 -10 0 -5 9 -10 19 -10 11 0 22 -4 26 -10 3 -5 12 -7 19 -4 8 3 16 1 20 -4
3 -5 -10 -15 -29 -22 -19 -8 -35 -20 -35 -27 0 -7 -5 -13 -11 -13 -5 0 -8 4
-4 9 9 16 -17 25 -61 22 -39 -2 -84 14 -84 31 0 4 12 14 26 21 20 11 24 16 14
22 -9 5 -15 4 -18 -3 -2 -7 -9 -12 -15 -12 -7 0 -17 -10 -22 -22 -6 -13 -29
-30 -55 -40 -37 -15 -40 -17 -15 -15 17 2 42 9 56 16 38 19 93 -13 59 -34 -15
-9 7 -45 28 -45 15 1 15 2 -2 15 -11 8 -15 15 -10 15 6 0 14 -4 20 -10 8 -8
48 -3 99 15 13 4 12 1 -5 -9 -14 -8 -32 -15 -41 -16 -8 0 -24 -7 -35 -16 -18
-14 -17 -15 20 -9 36 6 39 5 26 -10 -9 -11 -22 -14 -38 -10 -15 4 -21 2 -17
-5 4 -6 -4 -10 -18 -10 -34 0 -41 12 -15 27 l23 14 -25 -7 c-14 -4 -32 -15
-41 -26 -11 -12 -23 -16 -34 -11 -12 4 -16 3 -12 -4 4 -7 -3 -10 -18 -9 -49 2
-28 17 40 28 11 2 19 11 19 20 -1 9 4 14 10 12 7 -3 12 4 12 16 0 11 -7 20
-15 20 -12 0 -12 3 -3 12 20 20 13 27 -17 15 -17 -6 -28 -15 -25 -19 3 -4 1
-8 -5 -8 -5 0 -12 6 -14 13 -4 10 -6 10 -6 0 -1 -7 -13 -13 -27 -13 -17 0 -23
4 -18 13 5 8 2 7 -9 -2 -10 -8 -19 -12 -20 -10 -1 2 -8 12 -15 21 -11 13 -11
20 0 37 7 12 16 21 21 21 4 0 -1 -12 -10 -27 -18 -26 -17 -27 2 -19 11 5 28
11 38 13 9 3 17 9 17 13 0 4 8 10 18 12 11 3 18 16 20 35 2 25 -2 31 -22 35
-26 5 -106 -27 -106 -42 0 -6 5 -10 10 -10 6 0 10 -4 10 -10 0 -5 -6 -10 -14
-10 -9 0 -13 -9 -12 -24 2 -14 -1 -23 -8 -20 -6 2 -16 -8 -23 -22 l-12 -26 44
4 c23 1 41 0 38 -4 -2 -5 -15 -8 -29 -8 -14 0 -22 -4 -19 -10 3 -6 1 -10 -4
-10 -6 0 -11 5 -11 10 0 6 -7 10 -15 10 -8 0 -15 -9 -15 -20 0 -14 7 -20 22
-20 36 0 14 -10 -26 -12 -49 -2 -63 -20 -36 -46 18 -17 19 -20 5 -26 -10 -4
-14 -2 -9 6 5 7 3 8 -5 3 -8 -4 -25 2 -43 15 -19 14 -29 17 -26 9 2 -8 14 -18
26 -24 12 -5 22 -13 22 -17 0 -5 7 -8 15 -8 8 0 23 -9 32 -20 10 -11 23 -20
30 -20 7 0 1 -12 -13 -27 -31 -33 -27 -45 14 -48 20 -2 29 1 25 8 -3 6 -1 7 6
3 18 -11 -8 -39 -31 -33 -10 3 -18 1 -18 -4 0 -5 10 -9 23 -9 17 0 19 -2 7
-10 -12 -7 -10 -9 7 -7 16 1 19 5 12 13 -17 20 36 22 75 3 24 -11 36 -13 35
-6 -3 23 1 37 10 37 5 0 7 -9 4 -20 -5 -17 0 -20 31 -20 20 0 36 -5 36 -11 0
-5 -6 -7 -12 -3 -7 4 -9 3 -5 -1 4 -5 13 -10 20 -11 7 -1 21 -5 32 -9 14 -5
16 -4 7 3 -8 5 -14 13 -15 18 -1 5 -6 8 -12 6 -7 -2 -7 0 0 6 6 6 25 8 44 5
24 -4 29 -8 20 -15 -10 -6 -3 -8 21 -4 19 3 42 1 50 -4 11 -7 7 -10 -20 -11
-30 -2 -31 -3 -7 -6 15 -2 27 -7 27 -11 0 -4 14 -7 30 -7 33 0 40 11 13 18
-17 4 -17 5 0 6 9 0 17 6 17 11 0 6 7 10 15 10 8 0 15 -5 15 -11 0 -5 -5 -7
-11 -4 -6 4 -5 -2 3 -14 7 -12 22 -24 33 -28 20 -6 20 -6 0 -13 -11 -4 -28 -3
-38 2 -10 5 -28 8 -40 6 -16 -3 -9 -8 28 -19 43 -14 46 -17 24 -22 -28 -7 -69
1 -69 14 0 4 -12 6 -26 3 -16 -3 -23 -1 -19 6 3 5 -1 10 -10 10 -9 0 -14 -4
-11 -9 3 -5 -1 -12 -10 -15 -22 -8 -26 -8 -19 3 3 5 0 13 -6 17 -7 4 -9 3 -5
-4 8 -14 0 -18 -51 -27 -40 -6 -41 -6 -36 17 6 20 5 22 -10 9 -9 -7 -15 -17
-12 -21 3 -5 0 -12 -6 -16 -8 -4 -9 -3 -5 4 4 7 3 12 -1 12 -12 0 -33 -22 -33
-34 0 -6 4 -5 9 3 6 9 14 10 27 3 11 -5 27 -8 38 -6 14 2 16 0 7 -9 -6 -6 -11
-17 -11 -25 0 -12 3 -12 17 -1 15 12 16 12 10 -4 -4 -11 -3 -16 3 -12 6 3 10
12 10 18 0 12 21 34 49 52 9 5 12 4 7 -3 -3 -5 0 -13 6 -16 9 -4 10 -8 2 -11
-6 -3 -19 -11 -28 -18 -14 -10 -11 -12 20 -13 20 0 40 -7 45 -15 7 -11 9 -11
9 4 0 9 -8 17 -17 18 -10 0 2 7 27 14 48 15 79 12 76 -8 -3 -25 -17 -35 -38
-29 -14 3 -19 1 -14 -6 7 -12 -51 -58 -61 -48 -4 3 -1 6 5 6 7 0 12 3 12 8 0
4 -15 7 -32 8 -63 1 -117 11 -135 25 -16 13 -17 12 -5 -3 12 -14 10 -19 -15
-32 -28 -14 -27 -14 29 -14 31 -1 66 -6 78 -12 11 -6 24 -9 28 -6 4 3 14 0 22
-5 11 -7 1 -9 -32 -4 -30 4 -49 2 -53 -6 -10 -15 13 -29 47 -29 28 0 46 -16
26 -22 -8 -3 -6 -7 5 -11 11 -4 17 -1 17 8 0 8 5 15 10 15 6 0 10 7 10 15 0 9
9 15 24 15 13 0 29 6 35 13 6 8 28 13 56 12 47 -2 58 7 28 23 -15 9 -12 13 17
30 32 20 57 21 45 2 -3 -5 3 -7 14 -5 10 2 31 -3 46 -11 15 -8 30 -12 34 -10
3 2 26 0 51 -4 l45 -8 -45 0 c-25 0 -60 -3 -77 -7 -20 -5 -33 -4 -33 3 0 5 -9
12 -21 15 -16 4 -19 2 -15 -10 4 -10 2 -13 -8 -10 -9 4 -17 -1 -21 -12 -4 -14
-14 -18 -38 -16 -18 1 -41 -2 -52 -8 -11 -6 -33 -14 -50 -19 -21 -5 -14 -6 23
-2 56 5 61 1 35 -28 -14 -15 -14 -18 -1 -18 22 0 50 34 38 46 -6 6 7 9 37 9
31 0 48 -5 51 -14 3 -9 0 -12 -10 -9 -20 8 -42 -7 -34 -21 5 -7 22 -10 44 -6
l37 5 -30 -14 -30 -14 30 -4 c22 -2 31 -9 33 -24 2 -12 13 -24 25 -28 11 -3
19 -8 16 -10 -3 -3 -22 -1 -44 5 -25 7 -34 13 -25 19 16 10 4 30 -19 30 -10 0
-24 7 -31 15 -14 17 -50 21 -50 6 0 -17 -46 -61 -64 -61 -9 0 -16 -7 -16 -15
0 -19 -16 -19 -24 0 -3 8 -12 15 -21 15 -21 0 -19 28 3 32 9 2 22 -3 29 -12
11 -13 14 -13 29 2 17 16 16 18 -10 28 -20 7 -40 7 -69 -2 -23 -6 -51 -13 -62
-15 -11 -2 -24 -9 -30 -17 -18 -23 -59 -40 -102 -42 -24 -1 -43 2 -43 7 0 5 9
9 21 9 15 0 19 5 15 16 -3 8 -2 12 3 9 5 -3 12 -1 16 5 4 7 12 7 24 0 18 -9
31 -4 31 12 0 4 -11 8 -25 8 -16 0 -25 6 -25 15 0 12 4 13 19 5 25 -13 68 -13
76 0 3 6 1 10 -4 10 -6 0 -11 11 -11 25 0 16 -6 25 -16 25 -10 0 -13 6 -10 18
5 15 0 17 -34 17 -25 0 -36 -3 -30 -9 6 -6 4 -17 -7 -28 -13 -15 -14 -21 -5
-27 10 -6 8 -14 -8 -33 -11 -15 -20 -31 -20 -37 0 -5 -17 -9 -39 -8 -30 1 -38
5 -34 17 4 11 1 11 -10 -2 -25 -31 -40 -20 -17 12 24 33 17 40 -13 13 -18 -17
-19 -17 -32 0 -6 9 -17 17 -23 17 -6 0 -9 7 -6 15 4 9 0 15 -9 15 -21 0 -27
-35 -11 -58 17 -24 8 -35 -17 -19 -11 7 -19 23 -19 37 0 14 -9 31 -20 38 -18
11 -21 9 -30 -14 -9 -22 -14 -25 -38 -20 -15 4 -44 7 -65 6 -31 -1 -39 3 -47
25 -13 35 -13 35 11 35 13 0 19 -5 16 -13 -4 -10 3 -12 31 -8 19 3 37 12 40
20 3 10 0 12 -13 7 -16 -6 -68 14 -158 59 -22 12 -27 12 -27 1 0 -8 7 -16 15
-20 8 -3 15 -12 15 -21 0 -8 5 -15 10 -15 19 0 10 -16 -17 -31 -16 -9 -57 -19
-92 -23 -35 -3 -69 -10 -76 -16 -8 -6 -18 -5 -31 5 -18 14 -18 14 4 15 15 0
22 5 19 13 -4 11 -16 12 -62 5 -16 -2 -19 2 -18 19 2 13 -1 23 -6 23 -18 0
-39 -38 -45 -84 -3 -27 -11 -54 -16 -61 -6 -7 -11 -30 -13 -51 l-2 -39 820 -3
c721 -2 820 0 828 13 4 8 18 15 30 15 21 -1 22 -1 3 -15 -18 -13 13 -15 270
-14 159 0 283 3 277 6 -19 7 -16 20 7 26 11 3 30 -3 44 -14 19 -15 41 -19 101
-19 l78 0 -6 30 c-5 23 -3 30 9 30 8 0 17 -7 20 -15 4 -8 10 -12 15 -9 12 7
11 44 -1 44 -5 0 -10 11 -10 24 0 19 -4 23 -20 19 -27 -7 -25 6 3 16 16 6 24
4 28 -8 4 -9 8 100 8 242 2 259 1 264 -32 258 -4 -1 -3 8 3 19 6 11 8 25 5 30
-3 5 0 12 6 16 8 4 7 9 -2 15 -11 7 -10 9 4 9 9 0 17 6 17 14 0 8 -8 17 -17
19 -17 4 -17 5 0 6 17 1 25 31 8 31 -25 0 -60 -21 -56 -33 4 -8 -6 -17 -22
-24 l-28 -11 25 -1 c18 -1 11 -7 -30 -21 -65 -24 -90 -25 -90 -5 0 8 -9 15
-19 15 -11 0 -21 5 -23 12 -2 6 -10 8 -16 4 -9 -5 -9 -13 -1 -27 6 -12 8 -23
5 -27 -3 -3 -6 0 -6 6 0 7 -11 12 -25 12 -14 0 -25 -6 -25 -13 0 -7 -9 -20
-20 -30 -19 -16 -20 -16 -20 11 0 15 5 33 10 38 6 6 8 18 4 28 -10 26 -34 0
-34 -37 0 -23 -3 -28 -11 -20 -9 9 -16 7 -28 -8 -16 -20 -16 -20 -40 5 l-24
26 22 0 c12 0 24 6 27 14 3 8 13 12 23 9 13 -3 20 2 24 18 7 24 -3 43 -10 22
-5 -14 -33 -18 -33 -5 1 10 37 52 45 52 3 0 3 -5 0 -10 -7 -12 34 -30 52 -23
8 3 11 14 6 31 -5 20 -3 24 9 19 13 -5 14 -1 5 23 -7 18 -14 25 -18 18 -4 -6
-15 -13 -24 -14 -9 -1 -25 -10 -34 -18 -10 -9 -22 -16 -28 -16 -6 0 -13 -4
-15 -9 -1 -4 -24 -11 -50 -15 -39 -6 -48 -4 -48 7 0 15 20 27 45 27 8 0 27 12
42 27 15 14 22 23 14 18 -11 -6 -13 -4 -8 8 3 9 2 19 -3 22 -6 4 -10 -1 -10
-9 0 -17 -30 -29 -54 -20 -9 3 -22 1 -30 -5 -17 -14 -89 -8 -94 8 -7 20 -38
12 -52 -14 -8 -14 -19 -24 -26 -21 -7 3 -27 1 -46 -4 -18 -5 -58 -11 -88 -14
-30 -2 -63 -8 -73 -11 -9 -4 -24 -2 -32 5 -12 10 -16 9 -21 -4 -3 -9 -9 -14
-13 -11 -5 2 -25 -1 -47 -7 -21 -6 -49 -10 -62 -10 -13 1 -32 -3 -42 -8 -12
-6 -21 -7 -25 0 -12 19 -79 -14 -95 -48 -8 -18 -14 -22 -19 -13 -5 8 -18 10
-34 6 -20 -5 -28 -3 -33 9 -10 26 23 54 85 71 89 25 87 24 65 40 -18 13 -17
14 11 12 30 -2 32 3 20 36 -8 20 8 23 27 4 16 -15 46 -14 77 2 22 12 22 13 4
26 -11 8 -32 17 -46 20 -15 4 -27 11 -27 16 0 5 -5 9 -11 9 -17 0 -80 52 -76
64 2 6 -6 18 -17 28 -12 10 -16 17 -10 18 6 0 17 -7 24 -15 7 -8 19 -15 26
-15 8 0 13 -3 13 -7 -3 -21 3 -31 21 -36 11 -3 23 -1 26 4 3 5 -2 9 -10 9 -14
0 -14 3 -4 19 12 20 52 36 67 27 13 -8 0 -57 -13 -49 -6 3 -3 -3 7 -14 23 -26
22 -36 -3 -23 -11 6 -20 18 -20 28 0 14 -2 15 -9 2 -13 -20 -5 -29 42 -50 26
-12 47 -16 57 -10 9 5 22 5 31 -1 12 -7 12 -9 0 -9 -8 0 -12 -3 -8 -6 15 -15
187 37 187 57 0 4 -16 13 -35 19 -41 13 -45 27 -11 36 28 7 66 -3 66 -17 0 -5
5 -9 10 -9 6 0 10 7 10 15 0 8 -5 15 -11 15 -23 0 3 18 33 22 23 4 41 -1 60
-15 24 -18 32 -19 66 -9 55 17 123 15 160 -4 l32 -15 -19 -27 c-24 -34 -36
-72 -22 -72 5 0 13 9 16 21 5 15 10 18 18 10 14 -14 57 -15 57 -1 0 15 16 12
34 -5 8 -8 21 -15 30 -15 8 0 19 -7 24 -15 7 -13 11 -11 22 10 16 29 35 33 44
8 3 -10 11 -26 18 -36 9 -13 10 -20 2 -25 -7 -5 -9 -22 -4 -52 6 -39 8 -40 9
-12 1 30 3 32 40 32 22 0 42 -5 44 -12 3 -7 4 2 2 20 -2 17 1 32 6 32 5 0 9
-4 9 -8 0 -4 11 -8 24 -8 14 0 22 4 20 8 -3 4 6 8 20 8 l26 0 0 475 0 475 -78
0 -77 0 -19 -37z m-1086 -513 c-20 -13 -57 -13 -44 -1 10 10 46 19 54 14 2 -2
-2 -8 -10 -13z m491 -11 c17 -33 -14 -94 -60 -114 -20 -9 -44 -20 -53 -25 -10
-6 -26 -10 -37 -10 -26 0 -51 -10 -51 -21 0 -5 7 -9 15 -9 15 0 22 -19 8 -21
-61 -9 -62 -9 -51 21 5 17 31 45 57 64 26 19 55 50 65 69 15 26 60 58 93 66 1
1 7 -9 14 -20z m-468 -26 c-7 -2 -19 -2 -25 0 -7 3 -2 5 12 5 14 0 19 -2 13
-5z m136 -25 c32 -10 33 -12 16 -24 -17 -12 -17 -14 -2 -14 22 0 21 -6 -3 -32
-11 -12 -20 -17 -20 -10 0 6 -6 9 -12 7 -18 -7 -47 15 -30 22 27 11 10 21 -28
16 -45 -6 -57 12 -15 23 21 5 23 9 14 21 -11 12 -8 13 17 8 16 -4 44 -12 63
-17z m-170 -96 c23 -11 23 -12 4 -8 -32 6 -29 -12 3 -25 15 -5 24 -12 20 -16
-3 -3 -1 -12 6 -20 23 -28 1 -21 -37 13 -22 19 -45 34 -52 34 -16 0 -22 22
-11 43 8 15 12 16 25 5 9 -7 28 -19 42 -26z m1 28 c0 -5 -2 -10 -4 -10 -3 0
-8 5 -11 10 -3 6 -1 10 4 10 6 0 11 -4 11 -10z m84 -46 c4 -10 1 -14 -6 -12
-15 5 -23 28 -10 28 5 0 13 -7 16 -16z m194 -80 c10 -19 8 -22 -11 -26 -24 -5
-30 13 -13 40 9 15 9 15 24 -14z m127 -45 c11 -17 -3 -23 -28 -11 -12 6 -31
13 -42 15 -18 4 -18 5 5 14 25 11 53 3 65 -18z m-179 7 c7 -8 24 -12 36 -9 17
3 19 2 9 -5 -7 -5 -17 -15 -21 -22 -5 -8 -14 -2 -29 19 -23 32 -20 42 5 17z
m-216 -16 c0 -5 -8 -7 -17 -3 -13 4 -15 3 -8 -5 6 -6 21 -12 35 -15 14 -2 19
-2 13 0 -7 3 -13 9 -13 14 0 4 11 3 25 -3 32 -15 32 -28 -1 -28 -14 0 -23 -4
-19 -10 3 -5 13 -7 23 -4 9 2 4 -2 -13 -10 -35 -18 -64 -20 -85 -6 -12 8 -11
11 8 16 20 6 23 12 18 35 -5 24 -2 29 14 29 11 0 20 -4 20 -10z m940 0 c0 -5
-5 -10 -11 -10 -5 0 -7 5 -4 10 3 6 8 10 11 10 2 0 4 -4 4 -10z m53 -6 c-7 -3
-9 -12 -6 -20 7 -18 -4 -18 -23 0 -15 15 -5 24 26 24 9 0 10 -1 3 -4z m-913
-64 c0 -5 -2 -10 -4 -10 -3 0 -8 5 -11 10 -3 6 -1 10 4 10 6 0 11 -4 11 -10z
m1040 -5 c0 -9 -9 -15 -22 -14 -13 0 -17 3 -10 6 6 2 10 9 6 14 -3 5 2 9 10 9
9 0 16 -7 16 -15z m-1280 -6 c0 -6 -7 -9 -15 -5 -8 3 -15 1 -15 -4 0 -6 -7
-10 -15 -10 -8 0 -15 5 -15 11 0 5 4 8 9 4 5 -3 12 -1 16 5 8 14 35 13 35 -1z
m1363 4 c-7 -2 -19 -2 -25 0 -7 3 -2 5 12 5 14 0 19 -2 13 -5z m-1533 -84 c0
-10 -2 -10 -73 -14 -37 -2 -44 0 -32 9 19 14 105 18 105 5z m947 -25 c-3 -3
-12 -4 -19 -1 -8 3 -5 6 6 6 11 1 17 -2 13 -5z m33 -24 c0 -5 -4 -10 -10 -10
-5 0 -10 -5 -10 -11 0 -7 12 -9 35 -5 19 4 43 2 53 -3 13 -7 22 -7 30 1 7 7
12 9 12 5 0 -18 -47 -47 -75 -45 -16 1 -52 -6 -80 -15 -27 -9 -94 -18 -147
-21 -85 -4 -97 -3 -101 12 -3 9 -5 4 -6 -13 l-2 -30 -14 25 c-8 14 -14 19 -15
12 0 -20 -83 -52 -142 -56 -29 -2 -61 -7 -70 -11 -10 -4 -25 -4 -34 -1 -10 4
-18 -1 -21 -14 -5 -20 -21 -28 -72 -35 -25 -3 -31 0 -31 15 0 11 10 26 23 34
29 19 214 76 280 86 120 19 235 42 277 56 25 9 53 16 62 16 10 -1 20 3 23 9 8
12 35 12 35 -1z m-907 -7 c-7 -2 -19 -2 -25 0 -7 3 -2 5 12 5 14 0 19 -2 13
-5z m-48 -13 c19 -8 19 -9 -2 -9 -12 -1 -25 4 -28 9 -7 12 2 12 30 0z m-181
-25 c-4 -8 -1 -15 5 -15 19 0 12 -17 -9 -23 -11 -3 -18 -1 -14 4 3 5 -2 9 -10
9 -20 0 -10 27 12 33 10 3 18 5 19 6 1 0 0 -6 -3 -14z m241 -55 c-3 -5 -12 -7
-20 -3 -21 7 -19 13 6 13 11 0 18 -4 14 -10z m-95 -6 c0 -3 -10 -14 -22 -25
-13 -10 -17 -18 -10 -19 6 0 12 4 12 9 0 4 11 6 25 3 17 -3 27 1 31 12 6 17
44 23 44 7 0 -18 -72 -42 -134 -44 -35 -1 -62 1 -59 6 2 4 8 7 13 7 5 0 26 11
46 25 36 25 54 31 54 19z m240 2 c0 -2 -7 -7 -16 -10 -8 -3 -12 -2 -9 4 6 10
25 14 25 6z m737 -71 c36 -15 36 -16 16 -30 -14 -10 -43 -14 -97 -12 -43 1
-80 -1 -82 -5 -3 -5 -10 -6 -15 -3 -5 4 -9 2 -9 -2 0 -5 -8 -9 -17 -10 -56 -4
-167 -24 -177 -31 -6 -5 -31 -10 -56 -11 -25 -2 -48 -5 -52 -7 -4 -2 -10 1
-13 6 -12 19 25 48 68 55 92 13 174 27 212 36 22 6 69 14 105 18 36 5 69 9 73
10 4 0 24 -6 44 -14z m159 -30 c-18 -28 -66 -35 -84 -12 -8 10 -2 12 28 9 31
-3 40 0 50 18 6 12 14 19 17 16 3 -3 -2 -17 -11 -31z m-1171 5 c-3 -5 -11 -10
-16 -10 -6 0 -7 5 -4 10 3 6 11 10 16 10 6 0 7 -4 4 -10z m230 0 c-17 -7 -14
-9 15 -10 19 -1 44 -6 55 -11 16 -7 14 -9 -12 -6 -18 2 -33 0 -33 -4 0 -11
-31 1 -47 17 -10 10 -10 13 0 17 22 9 43 6 22 -3z m349 -111 c-12 -14 -13 -18
-2 -22 9 -4 9 -6 1 -6 -12 -1 -26 16 -29 34 -1 6 9 10 22 10 20 0 21 -2 8 -16z
m-84 -23 c0 -9 -30 -14 -35 -6 -4 6 3 10 14 10 12 0 21 -2 21 -4z m-87 -13
c-7 -2 -19 -2 -25 0 -7 3 -2 5 12 5 14 0 19 -2 13 -5z m185 -55 c7 -7 12 -20
12 -31 0 -15 -6 -18 -32 -15 -17 2 -34 9 -36 17 -3 8 0 11 6 8 5 -4 12 2 15
13 6 23 18 25 35 8z m118 2 c13 0 24 -5 24 -10 0 -11 -45 -3 -70 12 -12 8 -11
8 3 4 10 -3 30 -6 43 -6z m-370 -26 c-3 -9 -6 -18 -6 -20 0 -2 -5 -4 -11 -4
-8 0 -9 4 0 13 6 8 8 17 4 20 -3 4 -1 7 6 7 8 0 11 -6 7 -16z m599 -55 c5 -6
2 -9 -9 -9 -10 0 -14 -5 -10 -11 3 -6 17 -8 31 -4 14 3 30 2 36 -3 7 -5 29
-12 50 -16 27 -5 37 -12 37 -25 0 -16 -11 -20 -75 -26 -41 -4 -73 -11 -70 -15
3 -5 -3 -13 -13 -19 -14 -7 -18 -18 -14 -40 4 -26 1 -31 -16 -31 -25 0 -29 13
-24 71 l4 47 59 12 c63 14 91 33 43 30 -54 -4 -64 -1 -64 21 0 15 -5 19 -15
15 -19 -7 -47 3 -39 15 6 11 74 1 89 -12z m-810 1 c3 -6 -1 -7 -9 -4 -18 7
-21 14 -7 14 6 0 13 -4 16 -10z m505 0 c0 -7 6 -7 18 -1 22 12 94 12 86 0 -3
-5 -11 -9 -19 -9 -8 0 -16 -4 -20 -9 -3 -6 7 -6 26 -1 25 7 35 5 51 -10 19
-17 19 -20 5 -26 -10 -3 -17 -10 -17 -16 0 -5 5 -6 10 -3 6 3 10 1 10 -4 0
-11 -3 -12 -37 -15 -23 -2 -45 -15 -39 -24 2 -4 -1 -14 -7 -22 -10 -13 -18
-13 -44 -5 -30 10 -31 12 -15 25 9 8 36 24 60 34 24 11 45 23 47 26 3 4 -20 8
-51 8 -46 0 -55 -2 -50 -15 5 -13 4 -14 -9 -3 -10 8 -15 9 -15 1 0 -6 -5 -11
-10 -11 -6 0 -21 -10 -33 -23 -12 -12 -19 -18 -14 -13 12 17 8 22 -20 21 -18
0 -28 5 -28 15 0 8 -7 18 -15 22 -11 5 -10 7 6 7 11 1 24 5 30 10 5 5 26 14
47 21 20 6 35 16 32 21 -4 5 -1 9 4 9 6 0 11 -5 11 -10z m180 -5 c0 -8 -4 -15
-9 -15 -13 0 -22 16 -14 24 11 11 23 6 23 -9z m35 -33 c-8 -8 -25 10 -25 26 0
13 2 13 14 -4 8 -10 13 -21 11 -22z m274 10 c14 -13 11 -14 -19 -8 -19 4 -43
7 -52 7 -10 0 -18 7 -18 15 0 12 8 13 37 8 21 -4 44 -14 52 -22z m-599 -2
c-20 -13 -33 -13 -25 0 3 6 14 10 23 10 15 0 15 -2 2 -10z m703 -5 c-3 -13
-30 -18 -51 -10 -14 5 -14 7 -2 16 19 11 56 8 53 -6z m-743 -27 c0 -19 -16 -5
-17 14 -2 18 0 20 7 8 5 -8 10 -18 10 -22z m370 -8 c0 -5 -4 -10 -10 -10 -5 0
-10 5 -10 10 0 6 5 10 10 10 6 0 10 -4 10 -10z m290 -6 c0 -11 6 -14 21 -9 15
5 19 4 15 -4 -8 -12 -48 -15 -59 -5 -8 8 3 34 14 34 5 0 9 -7 9 -16z m-1079
-17 c-11 -11 -41 -3 -41 11 0 5 12 7 26 4 17 -3 22 -8 15 -15z m1414 13 c3 -5
-1 -10 -10 -10 -9 0 -13 5 -10 10 3 6 8 10 10 10 2 0 7 -4 10 -10z m-147 -26
c27 -2 32 -4 32 -14 0 -5 -8 -10 -17 -10 -22 1 -55 25 -46 34 4 3 9 3 12 -1 3
-5 12 -8 19 -9z m236 -10 c4 -9 4 -19 1 -22 -3 -3 -5 0 -5 6 0 7 -6 12 -14 12
-8 0 -18 5 -21 10 -3 6 3 10 13 10 11 0 23 -7 26 -16z m-794 -4 c0 -5 -12 -10
-27 -9 l-28 1 25 8 c14 4 26 8 28 9 1 1 2 -3 2 -9z m380 -10 c13 -8 13 -10 -2
-10 -9 0 -20 5 -23 10 -8 13 5 13 25 0z m-518 -40 c29 0 33 -6 19 -29 -6 -9
-18 -11 -34 -7 -21 5 -24 3 -20 -14 3 -11 0 -20 -6 -20 -6 0 -11 4 -11 9 0 6
-13 18 -30 28 -30 17 -43 47 -16 37 8 -3 23 -1 33 5 11 6 22 6 28 0 5 -5 22
-9 37 -9z m448 10 c0 -5 -4 -10 -10 -10 -5 0 -10 5 -10 10 0 6 5 10 10 10 6 0
10 -4 10 -10z m357 4 c-3 -3 -12 -4 -19 -1 -8 3 -5 6 6 6 11 1 17 -2 13 -5z
m83 -4 c0 -5 -2 -10 -4 -10 -3 0 -8 5 -11 10 -3 6 -1 10 4 10 6 0 11 -4 11
-10z m-66 -41 c-2 -5 -11 -6 -19 -2 -9 3 -22 0 -29 -6 -15 -13 -66 -5 -66 10
0 8 15 13 33 10 4 -1 10 5 13 12 4 12 11 12 39 -1 19 -9 32 -19 29 -23z m101
31 c-3 -5 -10 -10 -16 -10 -5 0 -9 5 -9 10 0 6 7 10 16 10 8 0 12 -4 9 -10z
m-752 -20 c-6 -23 -19 -26 -26 -6 -6 16 1 26 19 26 7 0 10 -8 7 -20z m-398 1
c3 -5 1 -12 -4 -15 -5 -3 -11 1 -15 9 -6 16 9 21 19 6z m752 -5 c12 3 22 0 25
-8 4 -9 -2 -13 -18 -13 -13 1 -27 4 -30 8 -3 3 -12 3 -20 0 -8 -3 -14 -1 -14
4 0 16 13 23 25 13 6 -5 20 -7 32 -4z m-437 -15 c7 -14 7 -22 0 -26 -13 -8
-40 13 -40 31 0 21 28 17 40 -5z m-360 -1 c0 -5 -4 -10 -10 -10 -5 0 -10 5
-10 10 0 6 5 10 10 10 6 0 10 -4 10 -10z m490 -10 c0 -5 -5 -10 -11 -10 -5 0
-7 5 -4 10 3 6 8 10 11 10 2 0 4 -4 4 -10z m424 -11 c-31 -12 -40 -9 -20 6 10
8 24 11 29 8 6 -4 2 -10 -9 -14z m-799 1 c-3 -5 -10 -10 -16 -10 -5 0 -9 5 -9
10 0 6 7 10 16 10 8 0 12 -4 9 -10z"/>
<path d="M1688 333 c7 -3 16 -2 19 1 4 3 -2 6 -13 5 -11 0 -14 -3 -6 -6z"/>
<path d="M1698 233 c6 -2 18 -2 25 0 6 3 1 5 -13 5 -14 0 -19 -2 -12 -5z"/>
<path d="M2545 1800 c3 -5 8 -10 11 -10 2 0 4 5 4 10 0 6 -5 10 -11 10 -5 0
-7 -4 -4 -10z"/>
<path d="M920 1480 c0 -14 64 -19 79 -5 11 11 6 13 -33 13 -25 0 -46 -3 -46
-8z"/>
<path d="M1270 1225 c12 -15 30 -12 30 6 0 5 -10 9 -21 9 -18 0 -19 -2 -9 -15z"/>
<path d="M1290 1160 c0 -5 5 -10 10 -10 6 0 10 5 10 10 0 6 -4 10 -10 10 -5 0
-10 -4 -10 -10z"/>
<path d="M1350 1110 c0 -5 -8 -7 -17 -3 -10 3 -15 3 -11 -2 11 -12 -21 -38
-38 -31 -9 3 -12 2 -9 -5 4 -5 2 -15 -4 -22 -6 -7 -6 -18 -1 -26 7 -12 11 -11
25 2 17 17 40 24 31 9 -3 -5 9 -6 26 -4 28 4 30 6 14 17 -13 10 -14 14 -4 18
10 3 10 7 1 17 -6 7 -9 19 -6 26 3 8 2 14 -1 14 -3 0 -6 -4 -6 -10z"/>
<path d="M1330 1000 c0 -5 5 -10 11 -10 5 0 7 5 4 10 -3 6 -8 10 -11 10 -2 0
-4 -4 -4 -10z"/>
<path d="M1278 933 c6 -2 18 -2 25 0 6 3 1 5 -13 5 -14 0 -19 -2 -12 -5z"/>
<path d="M1997 933 c-15 -2 -25 -9 -22 -14 4 -5 -18 -8 -50 -8 -40 1 -61 -3
-73 -15 -15 -15 -15 -16 1 -16 35 0 162 22 180 31 9 6 17 14 17 19 0 10 -3 10
-53 3z"/>
<path d="M2140 930 c0 -5 5 -10 10 -10 6 0 10 5 10 10 0 6 -4 10 -10 10 -5 0
-10 -4 -10 -10z"/>
<path d="M2386 914 c-13 -13 -15 -19 -6 -22 15 -5 33 13 28 28 -3 9 -9 7 -22
-6z"/>
<path d="M2484 889 c-3 -5 1 -15 8 -23 11 -11 16 -11 26 0 7 7 12 15 12 17 0
10 -40 15 -46 6z"/>
<path d="M2728 843 c7 -3 16 -2 19 1 4 3 -2 6 -13 5 -11 0 -14 -3 -6 -6z"/>
<path d="M2466 825 c4 -8 8 -15 10 -15 2 0 4 7 4 15 0 8 -4 15 -10 15 -5 0 -7
-7 -4 -15z"/>
<path d="M924 805 c-4 -11 -14 -28 -22 -37 -22 -26 -7 -22 22 5 17 16 22 27
16 37 -7 12 -10 11 -16 -5z"/>
<path d="M2728 803 c7 -3 16 -2 19 1 4 3 -2 6 -13 5 -11 0 -14 -3 -6 -6z"/>
<path d="M635 770 c-3 -5 -1 -10 4 -10 6 0 11 5 11 10 0 6 -2 10 -4 10 -3 0
-8 -4 -11 -10z"/>
<path d="M704 751 c5 -8 56 -3 56 5 0 2 -14 4 -31 4 -16 0 -28 -4 -25 -9z"/>
<path d="M440 729 c0 -5 5 -7 10 -4 6 3 10 8 10 11 0 2 -4 4 -10 4 -5 0 -10
-5 -10 -11z"/>
<path d="M529 735 c-5 -20 -3 -65 4 -65 4 0 7 10 7 21 0 12 8 28 18 35 16 12
15 13 -5 14 -13 0 -24 -2 -24 -5z"/>
<path d="M778 713 c7 -3 16 -2 19 1 4 3 -2 6 -13 5 -11 0 -14 -3 -6 -6z"/>
<path d="M608 693 c7 -3 16 -2 19 1 4 3 -2 6 -13 5 -11 0 -14 -3 -6 -6z"/>
<path d="M741 673 c-9 -10 -25 -13 -46 -10 -27 4 -34 2 -38 -15 -5 -18 -2 -19
36 -13 43 7 48 -2 6 -10 -65 -12 -84 -19 -97 -32 -8 -8 -17 -11 -20 -8 -3 3 3
12 14 20 10 8 14 15 7 15 -6 0 -14 -4 -17 -8 -3 -5 -20 -9 -38 -10 -18 0 -34
-6 -36 -11 -2 -7 -10 -8 -22 -1 -13 7 -19 6 -24 -5 -8 -21 6 -26 43 -15 19 5
31 5 31 -1 0 -6 7 -6 18 -1 9 5 22 8 28 5 6 -2 17 3 24 12 14 17 30 20 30 6 0
-10 -69 -44 -90 -44 -8 0 -21 -6 -28 -13 -7 -8 -32 -19 -55 -25 l-42 -12 40
-8 c26 -4 45 -3 54 5 12 9 14 8 9 -5 -5 -12 0 -16 22 -15 19 1 26 5 22 15 -4
10 6 8 34 -7 46 -24 107 -35 122 -20 7 7 16 7 29 -1 10 -6 12 -11 6 -11 -19 0
-16 -18 5 -23 49 -14 94 -18 87 -8 -4 7 0 8 11 4 14 -5 16 -3 11 11 -4 10 -7
20 -7 22 0 9 -47 3 -58 -8 -19 -19 -37 4 -23 29 6 10 11 12 11 6 0 -9 7 -10
25 -3 14 5 25 6 25 2 0 -4 5 0 10 8 5 8 10 11 10 5 0 -5 18 -11 40 -12 22 -1
52 -3 66 -4 24 -3 24 -4 8 -16 -10 -7 -24 -11 -31 -9 -7 3 -15 1 -18 -4 -4 -6
9 -10 29 -10 19 0 37 4 40 9 3 5 35 9 70 8 36 -1 63 -5 60 -9 -8 -13 31 -9 44
4 7 7 36 12 64 13 40 0 53 4 56 16 1 9 -4 16 -12 16 -8 0 -14 -5 -13 -11 1 -6
-8 -12 -20 -14 -13 -2 -23 0 -23 5 0 4 -20 8 -45 8 -50 -1 -53 2 -27 21 16 13
16 14 -3 7 -11 -3 -23 -11 -26 -16 -9 -12 -31 1 -24 14 4 5 1 9 -4 9 -6 0 -11
-6 -11 -12 0 -7 -5 -5 -11 5 -10 17 -12 17 -45 -2 -20 -12 -33 -17 -30 -12 7
11 -40 32 -59 25 -8 -4 -15 -11 -15 -16 0 -14 -49 -1 -67 17 -8 8 -24 15 -36
15 -16 0 -18 3 -8 9 7 5 22 6 33 3 15 -4 19 0 16 14 -3 20 18 24 57 9 11 -4
15 -3 9 2 -6 4 -16 18 -23 31 -6 12 -20 22 -31 22 -10 0 -21 6 -23 13 -4 9 -6
9 -6 -1 -1 -7 -14 1 -30 17 -26 27 -32 29 -45 16 -12 -13 -15 -13 -18 -1 -2
12 -5 12 -17 -1z m19 -63 c0 -13 -11 -13 -30 0 -12 8 -11 10 8 10 12 0 22 -4
22 -10z m70 6 c0 -2 -9 -6 -20 -9 -11 -3 -20 -1 -20 4 0 5 9 9 20 9 11 0 20
-2 20 -4z m-262 -97 c-2 -6 -7 -10 -11 -10 -4 1 -15 1 -24 1 -15 0 -16 2 -3
10 20 13 43 13 38 -1z m397 -19 c-3 -5 -11 -10 -16 -10 -6 0 -7 5 -4 10 3 6
11 10 16 10 6 0 7 -4 4 -10z m95 -20 c0 -5 -4 -10 -10 -10 -5 0 -10 5 -10 10
0 6 5 10 10 10 6 0 10 -4 10 -10z"/>
<path d="M445 660 c-3 -5 1 -10 9 -10 9 0 16 5 16 10 0 6 -4 10 -9 10 -6 0
-13 -4 -16 -10z"/>
<path d="M613 654 c-4 -12 -14 -14 -35 -10 -24 5 -27 3 -16 -7 7 -7 29 -13 49
-13 27 0 35 4 36 19 2 16 0 17 -14 5 -15 -11 -16 -11 -10 5 3 9 4 17 1 17 -2
0 -7 -7 -11 -16z"/>
<path d="M908 663 c-10 -2 -18 -8 -18 -13 0 -5 14 -4 30 1 45 16 36 25 -12 12z"/>
<path d="M505 630 c22 -24 21 -24 29 -4 4 12 2 15 -9 10 -8 -3 -15 -1 -15 4 0
6 -5 10 -12 10 -6 0 -3 -9 7 -20z"/>
<path d="M430 618 c0 -11 12 -10 30 2 12 7 10 9 -8 7 -12 0 -22 -5 -22 -9z"/>
<path d="M451 543 c-1 -7 -9 -13 -18 -13 -13 0 -14 -3 -5 -12 15 -15 37 3 29
24 -4 9 -6 10 -6 1z"/>
<path d="M370 500 c0 -5 5 -10 11 -10 5 0 7 5 4 10 -3 6 -8 10 -11 10 -2 0 -4
-4 -4 -10z"/>
<path d="M390 451 c0 -5 9 -7 20 -4 11 3 20 7 20 9 0 2 -9 4 -20 4 -11 0 -20
-4 -20 -9z"/>
<path d="M600 447 c14 -6 29 -16 33 -22 5 -6 6 -2 3 8 -3 10 -6 21 -6 23 0 2
-12 4 -27 3 l-28 0 25 -12z"/>
<path d="M898 451 c-20 -7 -10 -27 12 -26 8 1 30 -2 47 -6 19 -4 30 -3 27 2
-3 5 -16 9 -29 9 -13 0 -28 6 -32 14 -5 7 -15 11 -25 7z"/>
<path d="M686 435 c3 -8 10 -12 15 -9 5 3 9 0 9 -5 0 -6 5 -11 11 -11 14 0 2
18 -21 30 -16 8 -18 8 -14 -5z"/>
<path d="M1016 442 c-8 -14 25 -25 36 -12 4 5 5 8 2 5 -4 -3 -13 0 -20 6 -7 6
-14 6 -18 1z"/>
<path d="M1200 440 c0 -5 7 -7 15 -4 8 4 15 8 15 10 0 2 -7 4 -15 4 -8 0 -15
-4 -15 -10z"/>
<path d="M438 433 c7 -3 16 -2 19 1 4 3 -2 6 -13 5 -11 0 -14 -3 -6 -6z"/>
<path d="M650 430 c0 -5 5 -10 11 -10 5 0 7 5 4 10 -3 6 -8 10 -11 10 -2 0 -4
-4 -4 -10z"/>
<path d="M1104 432 c-12 -8 -29 -52 -20 -52 3 0 12 14 21 30 16 32 16 34 -1
22z"/>
<path d="M820 400 c0 -5 5 -10 11 -10 5 0 7 5 4 10 -3 6 -8 10 -11 10 -2 0 -4
-4 -4 -10z"/>
<path d="M768 393 c7 -3 16 -2 19 1 4 3 -2 6 -13 5 -11 0 -14 -3 -6 -6z"/>
<path d="M878 393 c7 -3 16 -2 19 1 4 3 -2 6 -13 5 -11 0 -14 -3 -6 -6z"/>
<path d="M915 390 c-3 -5 -1 -10 4 -10 6 0 11 5 11 10 0 6 -2 10 -4 10 -3 0
-8 -4 -11 -10z"/>
<path d="M333 372 c-3 -7 -3 -15 0 -18 8 -9 70 11 75 24 6 18 -69 12 -75 -6z"/>
<path d="M529 386 c-2 -3 -18 -7 -34 -10 -17 -2 -32 -5 -35 -5 -3 -1 2 -5 10
-11 9 -5 19 -5 26 1 9 7 25 7 51 0 50 -14 53 -14 53 4 0 8 -3 15 -7 16 -5 0
-20 3 -34 5 -14 2 -27 2 -30 0z"/>
<path d="M430 370 c0 -5 5 -10 10 -10 6 0 10 5 10 10 0 6 -4 10 -10 10 -5 0
-10 -4 -10 -10z"/>
<path d="M1143 370 c-13 -5 -23 -12 -23 -15 0 -10 44 2 48 13 4 14 4 14 -25 2z"/>
<path d="M870 359 c0 -5 5 -7 10 -4 6 3 10 8 10 11 0 2 -4 4 -10 4 -5 0 -10
-5 -10 -11z"/>
<path d="M1397 350 c3 -11 7 -20 9 -20 2 0 4 9 4 20 0 11 -4 20 -9 20 -5 0 -7
-9 -4 -20z"/>
<path d="M960 340 c0 -5 7 -7 15 -4 8 4 15 8 15 10 0 2 -7 4 -15 4 -8 0 -15
-4 -15 -10z"/>
<path d="M377 328 c-11 -7 41 -17 83 -15 14 0 39 -3 55 -7 l30 -7 -29 17 c-30
17 -119 25 -139 12z"/>
<path d="M778 333 c-21 -2 -38 -8 -38 -12 0 -4 18 -16 40 -27 37 -18 52 -34
31 -34 -5 0 -11 -7 -14 -14 -4 -10 -1 -13 9 -9 7 3 14 0 14 -6 0 -6 16 -11 35
-11 26 0 33 3 29 15 -7 18 -30 20 -37 3 -4 -8 -6 -7 -6 4 -1 9 4 18 10 20 6 2
5 14 -5 32 -8 16 -13 33 -10 38 3 4 -1 7 -8 6 -7 -1 -30 -3 -50 -5z"/>
<path d="M1075 330 c-3 -5 -1 -10 4 -10 6 0 11 5 11 10 0 6 -2 10 -4 10 -3 0
-8 -4 -11 -10z"/>
<path d="M1250 330 c-13 -8 -12 -10 3 -10 9 0 20 0 24 -1 4 0 9 4 11 10 5 14
-18 14 -38 1z"/>
<path d="M330 315 c-14 -16 -3 -20 19 -6 8 5 9 11 3 15 -5 3 -15 -1 -22 -9z"/>
<path d="M1038 313 c7 -3 16 -2 19 1 4 3 -2 6 -13 5 -11 0 -14 -3 -6 -6z"/>
<path d="M1060 290 c0 -5 9 -10 21 -10 11 0 17 5 14 10 -3 6 -13 10 -21 10 -8
0 -14 -4 -14 -10z"/>
<path d="M988 269 c-16 -9 -15 -39 2 -39 7 0 22 41 17 46 -1 2 -10 -2 -19 -7z"/>
<path d="M1030 260 c0 -5 5 -10 11 -10 5 0 7 5 4 10 -3 6 -8 10 -11 10 -2 0
-4 -4 -4 -10z"/>
<path d="M373 233 c9 -2 25 -2 35 0 9 3 1 5 -18 5 -19 0 -27 -2 -17 -5z"/>
<path d="M1024 216 c-1 -17 2 -23 12 -19 10 4 11 10 3 24 -13 24 -14 24 -15
-5z"/>
<path d="M967 176 c-4 -10 0 -12 14 -9 22 6 26 23 5 23 -8 0 -16 -6 -19 -14z"/>
<path d="M1030 170 c0 -5 11 -10 25 -10 14 0 25 5 25 10 0 6 -11 10 -25 10
-14 0 -25 -4 -25 -10z"/>
<path d="M1135 80 c-3 -5 -1 -10 4 -10 6 0 11 5 11 10 0 6 -2 10 -4 10 -3 0
-8 -4 -11 -10z"/>
</g>
</svg>
